# xmcd CD database file
#
# Track frame offsets:
#	150
#	17883
#	36538
#	53403
#	77863
#	92953
#	106721
#	129061
#	147372
#	166526
#	180710
#	193635
#	212931
#
# Disc length: 3084 seconds
#
# Revision: 1
# Processed by: cddbd v1.5.2PL0 Copyright (c) Steve Scherf et al.
# Submitted via: CDex 1.70beta2
#
DISCID=a90c0a0d
DTITLE=Lady Antebellum - Need You Now - TOCP-66947
DYEAR=2010
DGENRE=Classical
TTITLE0=Need You Now
TTITLE1=Our Kind of Love 
TTITLE2=American Honey
TTITLE3=Hello World
TTITLE4=Perfect Day
TTITLE5=Love This Pain
TTITLE6=When You Got a Good Thing
TTITLE7=Stars Tonight
TTITLE8=If I Knew Then
TTITLE9=Lookin' for a Good Time
TTITLE10=Ready to Love Again
TTITLE11=I Run to You
TTITLE12=Bottle Up Lightning
EXTD=YEAR: 2010
EXTT0=
EXTT1=
EXTT2=
EXTT3=
EXTT4=
EXTT5=
EXTT6=
EXTT7=
EXTT8=
EXTT9=
EXTT10=
EXTT11=
EXTT12=
PLAYORDER=
